<svg xmlns="http://www.w3.org/2000/svg" viewBox="0 0 64 64">
  <g fill="#6B8F71">
    <!-- leaf body -->
    <path d="M32 4C28 14 26 24 26 34 18 28 10 24 4 23c6 7 12 16 14 26-5 0-10 2-14 4 7 3 15 4 22 3v8a2 2 0 0 0 4 0v-8c7 1 15 0 22-3-4-2-9-4-14-4 2-10 8-19 14-26-6 1-14 5-22 11C36 24 34 14 32 4z"/>
    <!-- P counter (cut) via evenodd -->
  </g>
  <path fill="#6B8F71" fill-rule="evenodd" d="M32 4C28 14 26 24 26 34 18 28 10 24 4 23c6 7 12 16 14 26-5 0-10 2-14 4 7 3 15 4 22 3v8a2 2 0 0 0 4 0v-8c7 1 15 0 22-3-4-2-9-4-14-4 2-10 8-19 14-26-6 1-14 5-22 11C36 24 34 14 32 4zm2 22v18h2.5c4.2 0 7.5-2.6 7.5-6.8S40.7 26 36.5 26H34zm3.5 3c2.4 0 4 1.4 4 3.8s-1.6 3.8-4 3.8H34V29h3.5z"/>
</svg>
